<?xml version="1.0" standalone="no"?>
<!DOCTYPE svg PUBLIC "-//W3C//DTD SVG 20010904//EN"
 "http://www.w3.org/TR/2001/REC-SVG-20010904/DTD/svg10.dtd">
<svg version="1.0" xmlns="http://www.w3.org/2000/svg"
 width="1000.000000pt" height="1000.000000pt" viewBox="0 0 1000.000000 1000.000000"
 preserveAspectRatio="xMidYMid meet">
<metadata>
Created by potrace 1.11, written by Peter Selinger 2001-2013
</metadata>
<g transform="translate(0.000000,1000.000000) scale(0.100000,-0.100000)"
fill="#000000" stroke="none">
<path d="M0 7915 l0 -2085 913 0 912 0 534 -1773 c294 -974 581 -1928 639
-2120 65 -214 110 -347 118 -347 6 0 21 30 32 68 33 109 1192 4162 1192 4167
0 3 403 5 895 5 l895 0 0 -2915 0 -2915 1935 0 1935 0 0 2915 0 2915 -332 0
-333 0 -1065 1466 -1065 1466 -3 -1466 -2 -1466 -385 0 -385 0 0 2085 0 2085
-3215 0 -3215 0 0 -2085z"/>
<path d="M7260 9995 c0 -6 1946 -2743 1961 -2759 5 -6 9 548 9 1377 l0 1387
-985 0 c-542 0 -985 -2 -985 -5z"/>
<path d="M1070 2296 l0 -2296 734 0 735 0 -10 29 c-5 15 -326 1047 -713 2292
-632 2033 -706 2264 -725 2267 l-21 3 0 -2295z"/>
<path d="M4231 2307 c-382 -1255 -696 -2288 -699 -2294 -3 -10 143 -13 712
-13 l716 0 0 2295 c0 2179 -1 2295 -17 2295 -15 0 -135 -384 -712 -2283z"/>
</g>
</svg>
